<?xml version="1.0" encoding="UTF-8" standalone="no"?>
<svg
   xmlns:dc="http://purl.org/dc/elements/1.1/"
   xmlns:cc="http://creativecommons.org/ns#"
   xmlns:rdf="http://www.w3.org/1999/02/22-rdf-syntax-ns#"
   xmlns:svg="http://www.w3.org/2000/svg"
   xmlns="http://www.w3.org/2000/svg"
   id="svg266"
   style="clip-rule:evenodd;fill-rule:evenodd;image-rendering:optimizeQuality;shape-rendering:geometricPrecision;text-rendering:geometricPrecision"
   height="512"
   width="512"
   version="1.1">
  <metadata
     id="metadata272">
    <rdf:RDF>
      <cc:Work
         rdf:about="">
        <dc:format>image/svg+xml</dc:format>
        <dc:type
           rdf:resource="http://purl.org/dc/dcmitype/StillImage" />
        <dc:title></dc:title>
      </cc:Work>
    </rdf:RDF>
  </metadata>
  <defs
     id="defs270" />
  <g
     transform="matrix(0.59957627,0,0,0.59957627,40.548315,1.5232623)"
     id="g4">
    <path
       id="path2"
       d="m 33.5,-0.5 c 216.667,0 433.333,0 650,0 0.167,98.0006 0,196.001 -0.5,294 -3.738,81.969 -26.238,158.302 -67.5,229 0.167,0.333 0.333,0.667 0.5,1 5.924,-5.928 12.424,-11.094 19.5,-15.5 6.681,-1.951 13.348,-1.951 20,0 17.96,17.301 37.627,32.301 59,45 1.8,1.812 3.467,3.645 5,5.5 0,4.667 0,9.333 0,14 -3.343,13.84 -11.01,24.673 -23,32.5 -2.667,0.667 -5.333,0.667 -8,0 -6.539,-6.208 -13.373,-12.041 -20.5,-17.5 -17.65,15.301 -26.65,34.634 -27,58 12.333,10.333 24.667,20.667 37,31 5.634,8.706 5.967,17.706 1,27 -2.667,4 -5.333,8 -8,12 -79.2,79.011 -174.7,123.677 -286.5,134 -17.333,0 -34.667,0 -52,0 C 246.694,841.735 169.027,812.568 99.5,762 82.6983,746.866 66.1983,731.366 50,715.5 c -6.2804,-7.563 -10.1137,-16.229 -11.5,-26 0.5548,-5.5 2.3881,-10.5 5.5,-15 11.1474,-9.904 22.4807,-19.57 34,-29 -0.3498,-23.366 -9.3498,-42.699 -27,-58 -7.1275,5.459 -13.9608,11.292 -20.5,17.5 -3.4643,0.817 -6.7976,0.483 -10,-1 -10.64717,-8.144 -17.64717,-18.644 -21,-31.5 0,-4.667 0,-9.333 0,-14 1.53308,-1.855 3.19974,-3.688 5,-5.5 21.3728,-12.699 41.0395,-27.699 59,-45 10.8574,-3.403 20.5241,-1.403 29,6 2.8333,2.833 5.6667,5.667 8.5,8.5 C 92.151,505.132 83.4843,487.466 75,469.5 49.9804,410.075 36.3137,348.075 34,283.5 33.5,188.834 33.3333,94.1673 33.5,-0.5 Z m 538,590 c -5.057,12.671 -9.223,25.671 -12.5,39 -1.397,6.952 -1.73,13.952 -1,21 0.721,3.842 2.387,7.176 5,10 7.47,6.468 14.636,13.302 21.5,20.5 -31.096,36.233 -69.763,60.9 -116,74 -51.748,15.03 -104.415,19.363 -158,13 -41.31,-5.104 -80.31,-17.437 -117,-37 -22.358,-13.347 -42.025,-30.014 -59,-50 7.197,-7.531 14.697,-14.698 22.5,-21.5 1.908,-2.715 3.241,-5.715 4,-9 0.73,-7.048 0.397,-14.048 -1,-21 -2.888,-11.561 -6.388,-22.895 -10.5,-34 30.73,38.898 65.397,74.065 104,105.5 32.161,25.09 67.161,45.59 105,61.5 41.156,-16.901 78.822,-39.401 113,-67.5 37.719,-30.88 71.052,-65.713 100,-104.5 z"
       style="opacity:0.99599998;fill:#d80d13" />
  </g>
  <g
     transform="matrix(0.59957627,0,0,0.59957627,40.548315,1.5232623)"
     id="g8">
    <path
       id="path6"
       d="m 161.5,111.5 c 7.383,13.521 17.383,24.688 30,33.5 8.287,4.787 16.453,4.62 24.5,-0.5 3.957,-4.504 4.957,-9.504 3,-15 -1.648,-1.217 -3.481,-2.05 -5.5,-2.5 -10.092,-0.133 -19.759,-2.133 -29,-6 -7.675,-7.179 -10.509,-16.012 -8.5,-26.5 1.795,-9.7966 7.295,-16.6299 16.5,-20.5 9.321,-2.8847 18.321,-6.5514 27,-11 7.908,-6.6113 10.075,-14.7779 6.5,-24.5 -5.878,-9.359 -12.878,-10.359 -21,-3 -1.68,4.8811 -0.18,8.2144 4.5,10 4.925,-0.9307 7.259,-3.9307 7,-9 4.081,2.9011 4.914,6.5678 2.5,11 -2.079,2.2903 -4.579,3.9569 -7.5,5 1.075,2.938 1.241,5.938 0.5,9 -1.471,3.6497 -3.971,4.9831 -7.5,4 2.65,-3.0974 2.484,-6.0974 -0.5,-9 -6.39,-3.5568 -7.89,-2.2235 -4.5,4 -0.834,6.0142 -4.167,8.8475 -10,8.5 -0.857,-0.6891 -1.523,-1.5224 -2,-2.5 1.491,-0.7436 2.991,-1.4103 4.5,-2 0.723,-2.6249 -0.277,-4.2916 -3,-5 -4.644,2.225 -7.811,1.0583 -9.5,-3.5 0.167,-0.5 0.333,-1 0.5,-1.5 2.592,1.4817 4.925,1.1483 7,-1 1.594,-6.7027 3.261,-13.3694 5,-20 7.926,-8.3569 17.426,-10.8569 28.5,-7.5 9.327,5.4912 13.16,13.6579 11.5,24.5 -1.742,6.9921 -5.575,12.4921 -11.5,16.5 -8.436,4.2181 -17.102,7.8847 -26,11 -3.91,1.9066 -7.244,4.5733 -10,8 6.258,-0.25 12.591,-0.5833 19,-1 3.837,-1.1727 7.171,-3.1727 10,-6 2.079,-0.8077 4.079,-0.641 6,0.5 -4.863,3.3591 -9.863,6.5257 -15,9.5 -6.746,0.1213 -13.413,0.788 -20,2 -3.795,2.0424 -5.295,5.209 -4.5,9.5 2.441,-2.4686 5.274,-4.302 8.5,-5.5 6,-0.3333 12,-0.6667 18,-1 1.746,-0.4709 3.413,-1.1376 5,-2 2.785,-4.1201 6.618,-6.6201 11.5,-7.5 1.059,0.1301 1.892,0.6301 2.5,1.5 -2.449,0.7246 -4.783,1.7246 -7,3 -7.394,8.4668 -16.728,11.8 -28,10 -4.472,1.972 -7.805,5.138 -10,9.5 0.583,1.502 1.416,2.835 2.5,4 2.5,-2.5 5,-5 7.5,-7.5 6.937,-1.173 13.937,-1.84 21,-2 2.86,-2.36 5.86,-4.527 9,-6.5 1.021,0.5016 1.188,1.1683 0.5,2 -3.092,4.428 -7.259,7.261 -12.5,8.5 -5.047,0.338 -10.047,1.005 -15,2 -2.931,1.526 -4.931,3.859 -6,7 1.182,1.735 2.849,2.735 5,3 8,1 16,2 24,3 2.019,0.45 3.852,1.283 5.5,2.5 -0.108,-3.657 -0.108,-7.323 0,-11 1.777,-3.22 3.277,-6.553 4.5,-10 1.269,3.789 0.936,7.455 -1,11 2.143,8.591 2.31,17.258 0.5,26 -4.528,10.005 -12.361,15.005 -23.5,15 -8.682,-0.759 -16.182,-4.093 -22.5,-10 0.041,8.158 2.541,15.492 7.5,22 5.094,4.674 10.76,5.341 17,2 1,0.333 2,0.667 3,1 0.774,4.214 2.607,7.881 5.5,11 0.667,2 0.667,4 0,6 -1.342,-1.402 -2.176,-1.069 -2.5,1 1.797,4.227 1.131,7.893 -2,11 -1,-1.667 -2.333,-3 -4,-4 -0.602,4.498 -1.769,8.832 -3.5,13 -1.413,1.914 -3.247,3.247 -5.5,4 -0.929,-1.189 -1.262,-2.522 -1,-4 -1.478,-0.262 -2.811,0.071 -4,1 -0.446,2.776 -1.446,5.276 -3,7.5 -1.638,-0.242 -3.138,-1.075 -4.5,-2.5 -1.117,1.449 -1.784,3.116 -2,5 -2.036,0.602 -3.87,1.602 -5.5,3 -0.87,-1.907 -1.87,-3.74 -3,-5.5 0.45,-1.285 1.117,-2.452 2,-3.5 -0.209,-0.586 -0.543,-1.086 -1,-1.5 -1.887,-0.163 -3.387,0.671 -4.5,2.5 -1,-1 -2,-2 -3,-3 -0.893,1.211 -1.726,1.211 -2.5,0 1.31,-2.973 3.31,-5.307 6,-7 -1.604,-1.679 -2.271,-3.679 -2,-6 -1.052,0.149 -2.052,-0.017 -3,-0.5 2.667,-1.167 5.333,-2.333 8,-3.5 1.529,0.029 2.696,0.696 3.5,2 1.205,5.839 4.039,6.672 8.5,2.5 2.765,-4.769 3.598,-9.936 2.5,-15.5 -1.019,-1.187 -2.186,-2.187 -3.5,-3 -5.391,1.7 -10.391,0.867 -15,-2.5 -11.835,-6.188 -19.502,-15.688 -23,-28.5 0.26,-1.687 0.927,-3.187 2,-4.5 2.599,-0.769 5.099,-0.602 7.5,0.5 1.123,-3.456 0.29,-6.29 -2.5,-8.5 -5.123,-2.152 -10.456,-3.485 -16,-4 -6.868,-1.341 -11.701,-5.175 -14.5,-11.5 -1.512,0.757 -2.846,1.757 -4,3 -0.422,2.736 -0.422,5.402 0,8 -2.518,0.561 -5.018,0.894 -7.5,1 1.847,5.308 0.513,9.641 -4,13 -0.476,-2.684 -1.476,-5.017 -3,-7 -1,0.333 -1.667,1 -2,2 1.79,4.761 0.456,8.428 -4,11 -1.0237,-6.004 -4.0237,-7.337 -9,-4 0.4943,3.729 -0.1724,7.395 -2,11 -4.2015,-0.53 -6.2015,-2.863 -6,-7 -1.3333,0 -2.6667,0 -4,0 0,3.333 -1.6667,5 -5,5 0.1495,1.052 -0.0172,2.052 -0.5,3 -2.1152,-3.118 -2.6152,-6.451 -1.5,-10 -1.2757,-1.145 -2.609,-1.145 -4,0 -0.9776,-0.477 -1.8109,-1.143 -2.5,-2 -0.6708,0.752 -1.5041,1.086 -2.5,1 1.0114,-1.872 1.8448,-3.872 2.5,-6 2.5006,-0.45 4.6672,-1.45 6.5,-3 -2.3524,-1.678 -3.6857,-4.011 -4,-7 0.7739,-1.211 1.6072,-1.211 2.5,0 1.4659,-1.825 3.2992,-2.325 5.5,-1.5 2.0456,4.201 5.0456,5.201 9,3 7.983,-7.157 14.6497,-15.324 20,-24.5 4.637,-0.93 9.304,-1.597 14,-2 -0.132,3.389 -0.299,6.723 -0.5,10 5.221,-10.603 2.387,-13.936 -8.5,-10 -3.215,-0.272 -6.215,-1.105 -9,-2.5 2.812,-1.977 5.478,-4.144 8,-6.5 1.412,-3.4018 2.412,-6.9018 3,-10.5 -6.406,-3.8062 -9.7395,-9.4729 -10,-17 0.4917,-3.0914 1.325,-5.9248 2.5,-8.5 -1,1 -2,2 -3,3 -2.9206,10.0788 -0.0873,17.9121 8.5,23.5 -0.774,2.405 -1.274,4.905 -1.5,7.5 -0.308,0.8081 -0.808,1.4747 -1.5,2 -2.596,-2.7337 -5.5962,-3.4004 -9,-2 -0.9492,-2.6258 -0.9492,-5.2925 0,-8 -2.3273,-0.2529 -4.3273,0.4137 -6,2 -0.3333,-0.8333 -0.6667,-1.6667 -1,-2.5 1.4315,-2.3831 2.2649,-4.8831 2.5,-7.5 -4.247,-0.3738 -7.747,-2.2071 -10.5,-5.5 5.8169,-1.7418 6.3169,-4.2418 1.5,-7.5 -1.2853,0.4504 -2.452,1.1171 -3.5,2 -1.143,-2.4593 -0.8096,-4.7927 1,-7 -2.6225,-0.9588 -4.6225,-2.6255 -6,-5 -0.1716,-0.9916 0.1618,-1.6583 1,-2 4.3333,0.3333 6.3333,-1.6667 6,-6 -1.5603,0.0191 -3.0603,0.3524 -4.5,1 -1.5072,-1.0549 -3.0072,-2.0549 -4.5,-3 0.0394,-1.0832 0.3728,-2.0832 1,-3 1.896,-0.9656 3.896,-1.2989 6,-1 0,-1 0,-2 0,-3 -1.3221,0.17 -2.4887,-0.1634 -3.5,-1 -0.2326,-2.2801 -1.066,-4.2801 -2.5,-6 2.138,-0.2113 4.3047,-0.5446 6.5,-1 1.6255,0.7887 3.1255,1.7887 4.5,3 -0.1326,-3.9725 0.5341,-7.6392 2,-11 1.6933,1.5267 3.5266,2.8601 5.5,4 0.4828,0.948 0.6495,1.948 0.5,3 2.0996,0.0228 3.9329,-0.6439 5.5,-2 1.7027,1.2002 3.203,0.8668 4.5,-1 0.672,5.5748 -1.6616,9.5748 -7,12 -0.3333,0.8333 -0.6667,1.6667 -1,2.5 0.6854,2.5402 1.5187,5.0402 2.5,7.5 5.26,7.5254 10.26,15.1921 15,23 14.06,4.8611 25.893,1.6945 35.5,-9.5 -3.783,0.8807 -7.45,2.3807 -11,4.5 -0.333,-0.3333 -0.667,-0.6667 -1,-1 0.883,-1.048 1.55,-2.2147 2,-3.5 -1.258,-2.1849 -1.258,-4.3516 0,-6.5 2.172,-0.1759 4.505,-0.3425 7,-0.5 2.576,-0.7822 4.576,-2.2822 6,-4.5 -3.661,-0.952 -7.328,-0.7853 -11,0.5 -5.333,2.3333 -10.667,4.6667 -16,7 -9.101,1.5666 -12.767,-2.1001 -11,-11 -0.484,-2.4747 -1.817,-4.3081 -4,-5.5 5.882,-4.7784 10.215,-3.7784 13,3 -0.893,2.5841 -1.226,5.2508 -1,8 6.316,-0.1593 12.316,-1.6593 18,-4.5 4.21,-0.7382 8.376,-0.5715 12.5,0.5 0.772,-0.1448 1.439,-0.4781 2,-1 0.495,-1.9727 0.662,-3.9727 0.5,-6 -5.243,1.3055 -10.576,2.1388 -16,2.5 -0.525,0.6924 -1.192,1.1924 -2,1.5 -3.596,-3.6174 -3.93,-7.6174 -1,-12 -0.825,-0.8857 -1.825,-1.219 -3,-1 0,-1 0,-2 0,-3 5.133,-1.9485 10.466,-2.9485 16,-3 0.126,-3.095 1.793,-4.9283 5,-5.5 5.084,-0.1728 10.084,-0.8394 15,-2 0.717,-1.6524 1.05,-3.1524 1,-4.5 5.012,2.3509 7.178,6.3509 6.5,12 4.637,3.9457 6.47,8.9457 5.5,15 1.333,0 2.667,0 4,0 0.197,4.3063 -1.803,6.3063 -6,6 -0.069,4.9145 -0.736,9.7478 -2,14.5 -0.054,4.3409 1.946,7.1742 6,8.5 -2.797,3.9584 -6.63,5.9584 -11.5,6 -1.708,3.6628 -2.874,7.4961 -3.5,11.5 0.414,2.9956 1.748,5.4956 4,7.5 -3.525,2.609 -7.025,2.609 -10.5,0 -0.165,2.178 0.668,4.011 2.5,5.5 7.872,3.144 7.538,5.644 -1,7.5 z"
       style="opacity:0.997;fill:#fefafa" />
  </g>
  <g
     transform="matrix(0.59957627,0,0,0.59957627,40.548315,1.5232623)"
     id="g12">
    <path
       id="path10"
       d="m 634.5,97.5 c -1.763,3.599 -4.43,6.432 -8,8.5 -5.981,1.06 -11.981,2.06 -18,3 -3.465,0.966 -5.798,3.132 -7,6.5 1.279,1.646 2.945,2.813 5,3.5 6.293,1.023 12.626,1.689 19,2 3.785,0.373 7.285,1.539 10.5,3.5 0.108,-3.677 0.108,-7.343 0,-11 2.434,-3.295 4.101,-6.962 5,-11 0.458,4.177 0.292,8.343 -0.5,12.5 2.641,10.9 1.474,21.4 -3.5,31.5 -9.096,8.686 -19.596,10.853 -31.5,6.5 -4.089,-2.127 -7.923,-4.627 -11.5,-7.5 0.433,7.05 2.433,13.717 6,20 1.961,2.635 4.461,4.469 7.5,5.5 4.696,-0.125 9.363,-0.458 14,-1 0.374,4.247 2.207,7.747 5.5,10.5 0.667,2.333 0.667,4.667 0,7 -1.342,-1.402 -2.176,-1.069 -2.5,1 1.834,4.505 1.168,8.505 -2,12 -0.632,-2.237 -1.965,-3.903 -4,-5 0.272,7.119 -2.394,12.786 -8,17 -1.611,-0.82 -2.278,-2.154 -2,-4 -1.333,0 -2.667,0 -4,0 0.252,2.82 -0.248,5.486 -1.5,8 -0.561,0.522 -1.228,0.855 -2,1 -3.433,-4.292 -5.433,-3.626 -6,2 -1.399,0.727 -2.899,1.227 -4.5,1.5 1.211,0.893 1.211,1.726 0,2.5 -1.406,-2.066 -2.74,-4.232 -4,-6.5 1.646,-1.555 1.979,-3.221 1,-5 -1.887,-0.163 -3.387,0.671 -4.5,2.5 -1.361,-2.618 -3.194,-3.285 -5.5,-2 1.301,-1.382 2.134,-3.048 2.5,-5 1.011,-0.837 2.178,-1.17 3.5,-1 -1.139,-2.504 -1.806,-5.17 -2,-8 -1.052,0.149 -2.052,-0.017 -3,-0.5 2.875,-1.043 5.708,-2.21 8.5,-3.5 2.618,1.892 4.784,4.226 6.5,7 3.946,-0.873 6.446,-3.207 7.5,-7 0.667,-3.667 0.667,-7.333 0,-11 -0.7,-1.532 -1.866,-2.532 -3.5,-3 -2.938,1.075 -5.938,1.241 -9,0.5 -11.068,-5.406 -19.901,-13.24 -26.5,-23.5 -1.746,-4.291 -1.913,-8.625 -0.5,-13 -2.376,1.012 -3.376,2.845 -3,5.5 0.632,5.263 2.632,9.93 6,14 -4.58,6.089 -3.413,10.922 3.5,14.5 1.536,4.766 0.536,9.099 -3,13 -1.153,-1.997 -2.653,-2.33 -4.5,-1 -1.326,4.66 -3.659,8.66 -7,12 -0.585,-2.365 -1.752,-4.365 -3.5,-6 -1.886,3.94 -4.386,7.44 -7.5,10.5 -0.948,0.483 -1.948,0.649 -3,0.5 0,-1.333 0,-2.667 0,-4 -2.763,0.244 -4.929,1.577 -6.5,4 -1.305,-2.806 -3.472,-3.64 -6.5,-2.5 -1.428,1.916 -2.428,4.083 -3,6.5 -5.057,2.874 -7.724,1.207 -8,-5 1,0 2,0 3,0 0,-1.333 0,-2.667 0,-4 -2.175,0.182 -4.175,0.849 -6,2 -5.783,-1.311 -6.45,-3.811 -2,-7.5 3.346,0.225 5.68,-1.108 7,-4 -2.022,-2.449 -3.688,-5.116 -5,-8 2.755,-0.849 5.421,-1.516 8,-2 1.504,1.491 2.337,3.324 2.5,5.5 1.47,1.652 3.303,2.652 5.5,3 9.233,-2.27 16.233,-7.436 21,-15.5 -3.434,-3.434 -6.934,-6.934 -10.5,-10.5 -5.865,-7.569 -7.532,-15.902 -5,-25 1.255,-2.094 3.088,-3.094 5.5,-3 6.237,1.77 12.57,2.27 19,1.5 3.146,-0.11 4.146,-1.443 3,-4 -7.055,-0.763 -13.722,-2.763 -20,-6 -2.635,-1.961 -4.469,-4.461 -5.5,-7.5 -2,0.667 -3.333,2 -4,4 -0.155,2.356 -0.155,4.689 0,7 -2.518,0.561 -5.018,0.894 -7.5,1 1.997,5.196 0.83,9.53 -3.5,13 0.107,-3.057 -1.06,-5.391 -3.5,-7 -0.808,0.308 -1.475,0.808 -2,1.5 1.959,4.927 0.625,8.76 -4,11.5 -2.062,-7.133 -5.396,-7.8 -10,-2 0.477,0.978 1.143,1.811 2,2.5 -1.819,2.056 -2.485,4.223 -2,6.5 -4.733,-0.066 -7.067,-2.399 -7,-7 -1.052,-0.149 -2.052,0.017 -3,0.5 -6.783,10.433 -9.45,9.266 -8,-3.5 -3.173,0.831 -6.173,0.831 -9,0 1.306,-1.412 2.14,-3.079 2.5,-5 2.268,-1.26 4.434,-2.594 6.5,-4 -2.672,-1.925 -3.672,-4.592 -3,-8 1.901,0.067 3.734,-0.267 5.5,-1 2.112,1.108 3.946,2.608 5.5,4.5 4.112,-0.396 7.612,-2.229 10.5,-5.5 5.551,-6.55 10.717,-13.383 15.5,-20.5 4.363,-0.369 8.696,-0.869 13,-1.5 -0.164,2.687 0.003,5.354 0.5,8 2.267,-3.702 1.934,-7.035 -1,-10 -6.018,2.764 -11.852,2.597 -17.5,-0.5 2.833,-2.167 5.667,-4.333 8.5,-6.5 1.063,-3.2688 1.896,-6.6022 2.5,-10 -9.16,-6.9571 -11.66,-15.6237 -7.5,-26 -1.385,1.0505 -2.385,2.3839 -3,4 -2.444,9.3471 0.223,16.6804 8,22 0.972,3.8736 0.138,7.2069 -2.5,10 -2.698,-3.095 -5.532,-3.4284 -8.5,-1 -1.916,-2.5527 -1.749,-5.0527 0.5,-7.5 -2.43,-1.9832 -4.763,-1.8165 -7,0.5 -0.333,-0.6667 -0.667,-1.3333 -1,-2 1.544,-2.8557 2.544,-5.8557 3,-9 -4.584,0.7072 -8.25,-0.7928 -11,-4.5 5.621,-1.3781 6.288,-3.8781 2,-7.5 -5.259,2.3729 -6.259,0.8729 -3,-4.5 -1.71,-1.6111 -3.543,-3.1111 -5.5,-4.5 -0.483,-0.948 -0.649,-1.948 -0.5,-3 3.771,0.7263 6.437,-0.607 8,-4 -1.396,-2.2914 -3.229,-2.6247 -5.5,-1 -1.331,-1.4958 -2.831,-2.8291 -4.5,-4 0.976,-3.0684 2.809,-4.0684 5.5,-3 1.059,-0.1301 1.892,-0.6301 2.5,-1.5 -1.259,-0.9234 -2.592,-1.7568 -4,-2.5 -1.211,-1.2202 -1.211,-2.3869 0,-3.5 -1,-0.8333 -2,-1.6667 -3,-2.5 2.232,-0.5297 4.398,-0.8631 6.5,-1 1.626,0.7887 3.126,1.7887 4.5,3 0.808,-0.3076 1.475,-0.8076 2,-1.5 -0.648,-2.8472 -0.981,-5.6805 -1,-8.5 0.333,-0.3333 0.667,-0.6667 1,-1 1.571,1.915 3.571,2.915 6,3 0,1.3333 0,2.6667 0,4 2.177,-0.0861 4.177,-0.7528 6,-2 1.462,0.9709 2.795,0.6376 4,-1 0.333,0.6667 0.667,1.3333 1,2 -0.83,2.3284 -1.663,4.6617 -2.5,7 -2.916,1.0284 -5.083,2.8617 -6.5,5.5 1.087,3.6741 2.587,7.1741 4.5,10.5 2.744,2.4837 4.744,5.4837 6,9 0.333,-0.3333 0.667,-0.6667 1,-1 0.797,6.8277 4.297,11.3277 10.5,13.5 12.58,2.2537 22.913,-1.413 31,-11 -4.02,1.3727 -8.02,2.706 -12,4 1.073,-1.3129 1.74,-2.8129 2,-4.5 -1.266,-2.5024 -0.932,-4.8357 1,-7 4.592,1.371 8.592,0.371 12,-3 0.543,-0.06 0.876,-0.3933 1,-1 -2.809,-1.3003 -5.476,-1.3003 -8,0 -6.51,1.9168 -12.843,4.4168 -19,7.5 -10.386,1.2805 -14.552,-3.2195 -12.5,-13.5 -1.074,-1.1184 -2.24,-2.1184 -3.5,-3 4.719,-4.26 8.886,-3.9267 12.5,1 -0.046,3.3004 -0.212,6.6337 -0.5,10 6.344,0.0017 12.344,-1.4983 18,-4.5 5.028,-0.5883 10.028,-0.4216 15,0.5 0,-2.3333 0,-4.6667 0,-7 -5.216,1.423 -10.549,2.2563 -16,2.5 -0.525,0.6924 -1.192,1.1924 -2,1.5 -3.559,-3.6233 -3.893,-7.6233 -1,-12 -1.237,-0.7807 -2.237,-1.7807 -3,-3 5.223,-3.0317 10.89,-4.6983 17,-5 -0.209,-0.586 -0.543,-1.086 -1,-1.5 1.775,-1.4389 3.775,-2.4389 6,-3 4.751,-0.1887 9.417,-0.8553 14,-2 0.717,-1.6524 1.05,-3.1524 1,-4.5 5.528,2.1241 7.528,5.9574 6,11.5 5.015,3.5309 7.181,8.3643 6.5,14.5 1.011,0.8366 2.178,1.17 3.5,1 0.197,4.3063 -1.803,6.3063 -6,6 -0.722,6.6586 -0.889,13.3253 -0.5,20 1.307,1.2717 2.807,2.2717 4.5,3 -2.181,4.015 -5.348,5.3484 -9.5,4 -4.073,5.3588 -5.406,11.3588 -4,18 0.903,1.2014 2.069,2.0348 3.5,2.5 -3.742,2.952 -7.575,3.119 -11.5,0.5 1.104,4.862 4.271,7.862 9.5,9 -2.157,1.912 -4.491,3.579 -7,5 2.574,5.401 5.741,10.401 9.5,15 5.167,3.833 9.667,8.333 13.5,13.5 3.887,3.111 8.22,5.444 13,7 10.347,2.571 17.513,-0.929 21.5,-10.5 1.291,-4.172 0.124,-7.339 -3.5,-9.5 -6.935,-1.328 -13.935,-2.328 -21,-3 -11.207,-1.874 -17.707,-8.374 -19.5,-19.5 -1.81,-15.8888 4.69,-26.7221 19.5,-32.5 7.078,-2.4703 14.078,-5.137 21,-8 12.553,-8.4332 14.72,-18.9332 6.5,-31.5 -3.761,-2.7425 -7.928,-3.5759 -12.5,-2.5 -5.622,2.7347 -7.122,6.9014 -4.5,12.5 3.875,2.7203 7.209,2.0537 10,-2 0.179,-1.9242 0.346,-3.5909 0.5,-5 4.343,3.3936 5.01,7.3936 2,12 -2.18,1.5902 -4.513,2.9235 -7,4 3.173,6.6509 1.339,11.3175 -5.5,14 -0.5,-0.3333 -1,-0.6667 -1.5,-1 2.951,-6.4233 0.784,-10.4233 -6.5,-12 0.251,2.4554 0.751,4.9554 1.5,7.5 -1.024,5.7009 -4.357,8.3676 -10,8 -0.857,-0.6891 -1.523,-1.5224 -2,-2.5 1.491,-0.7436 2.991,-1.4103 4.5,-2 0.723,-2.6249 -0.277,-4.2916 -3,-5 -5.558,2.3918 -8.558,0.7252 -9,-5 2.592,1.4817 4.925,1.1483 7,-1 1.981,-5.8283 3.314,-11.8283 4,-18 8.664,-10.7721 19.498,-13.6055 32.5,-8.5 10.237,9.9176 11.737,21.0843 4.5,33.5 -1.833,1.8333 -3.667,3.6667 -5.5,5.5 -10.249,4.8606 -20.583,9.5272 -31,14 -2.628,1.6255 -4.961,3.6255 -7,6 6.591,-0.2546 13.258,-0.5879 20,-1 3.272,-1.6078 6.272,-3.6078 9,-6 2.079,-0.8077 4.079,-0.641 6,0.5 -4.863,3.3591 -9.863,6.5257 -15,9.5 -6.746,0.1213 -13.413,0.788 -20,2 -1.431,0.4652 -2.597,1.2986 -3.5,2.5 -0.614,2.3786 -0.947,4.712 -1,7 2.564,-2.2272 5.397,-4.0606 8.5,-5.5 7.079,-0.1145 14.079,-0.7811 21,-2 2.628,-1.6255 4.961,-3.6255 7,-6 3.242,-2.3246 6.576,-2.6579 10,-1 -2.108,0.3599 -4.108,1.0266 -6,2 -3.667,3 -7.333,6 -11,9 -7.028,0.9583 -14.028,1.9583 -21,3 -4.782,2.073 -6.949,5.573 -6.5,10.5 0.333,0.667 0.667,1.333 1,2 3.011,-4.02 6.844,-6.853 11.5,-8.5 5.667,-0.333 11.333,-0.667 17,-1 2.639,-2.483 5.639,-4.316 9,-5.5 z"
       style="opacity:0.997;fill:#fefafa" />
  </g>
  <g
     transform="matrix(0.59957627,0,0,0.59957627,40.548315,1.5232623)"
     id="g16">
    <path
       id="path14"
       d="m 151.5,27.5 c 3.636,0.3185 6.969,1.4852 10,3.5 -4.166,0.3685 -8.166,1.0352 -12,2 -1.42,-2.5736 -0.753,-4.407 2,-5.5 z"
       style="opacity:1;fill:#db2322" />
  </g>
  <g
     transform="matrix(0.59957627,0,0,0.59957627,40.548315,1.5232623)"
     id="g20">
    <path
       id="path18"
       d="m 565.5,27.5 c 3.75,-0.0979 7.083,1.0688 10,3.5 -4.144,0.3153 -8.144,1.1487 -12,2.5 -0.241,-2.3863 0.425,-4.3863 2,-6 z"
       style="opacity:0.99800002;fill:#dc2824" />
  </g>
  <g
     transform="matrix(0.59957627,0,0,0.59957627,40.548315,1.5232623)"
     id="g24">
    <path
       id="path22"
       d="m 170.5,40.5 c 2.091,6.8864 0.091,12.3864 -6,16.5 -3.079,1.0904 -5.412,0.2571 -7,-2.5 7.761,-1.4292 12.094,-6.0959 13,-14 z"
       style="opacity:1;fill:#da2120" />
  </g>
  <g
     transform="matrix(0.59957627,0,0,0.59957627,40.548315,1.5232623)"
     id="g28">
    <path
       id="path26"
       d="m 585.5,37.5 c 1.605,7.5066 -0.395,14.0066 -6,19.5 -3.654,1.297 -6.321,0.297 -8,-3 3.659,0.0372 6.826,-1.1295 9.5,-3.5 2.576,-3.9751 4.076,-8.3085 4.5,-13 z"
       style="opacity:1;fill:#db2725" />
  </g>
  <g
     transform="matrix(0.59957627,0,0,0.59957627,40.548315,1.5232623)"
     id="g32">
    <path
       id="path30"
       d="m 556.5,53.5 c 2.524,-1.3003 5.191,-1.3003 8,0 -0.124,0.6067 -0.457,0.94 -1,1 -2.107,-0.9682 -4.441,-1.3016 -7,-1 z"
       style="opacity:0.81199999;fill:#e8676b" />
  </g>
  <g
     transform="matrix(0.59957627,0,0,0.59957627,40.548315,1.5232623)"
     id="g36">
    <path
       id="path34"
       d="m 74.5,56.5 c -0.8382,0.3417 -1.1716,1.0084 -1,2 -1.2759,-0.8864 -1.2759,-1.8864 0,-3 0.6067,0.1236 0.94,0.4569 1,1 z"
       style="opacity:0.76499999;fill:#ec8588" />
  </g>
  <g
     transform="matrix(0.59957627,0,0,0.59957627,40.548315,1.5232623)"
     id="g40">
    <path
       id="path38"
       d="m 164.5,72.5 c 0.543,0.06 0.876,0.3933 1,1 -1.818,4.625 -3.318,9.2916 -4.5,14 -0.771,-2.6897 -1.604,-5.3564 -2.5,-8 -2.751,1.7927 -5.584,3.4594 -8.5,5 -0.502,3.7411 -0.502,7.4078 0,11 -2.951,-2.6715 -4.117,-6.0048 -3.5,-10 -2.868,-0.415 -5.035,0.585 -6.5,3 -1.161,4.9164 -1.827,9.9164 -2,15 -1.069,-5.2553 -1.903,-10.5886 -2.5,-16 -4.039,3.8746 -7.539,8.208 -10.5,13 0.771,-5.2139 2.937,-9.8806 6.5,-14 -2.023,-0.541 -4.023,-0.041 -6,1.5 -2.78,1.8123 -5.28,3.979 -7.5,6.5 -0.667,-0.6667 -0.667,-1.3333 0,-2 3.058,-3.5617 6.558,-6.5617 10.5,-9 -3.735,-0.6527 -7.401,-1.4861 -11,-2.5 5.482,-0.0659 10.816,-0.8993 16,-2.5 1.078,3.2467 3.244,5.2467 6.5,6 9.652,-1.2435 17.818,-5.2435 24.5,-12 z"
       style="opacity:0.98600003;fill:#db2624" />
  </g>
  <g
     transform="matrix(0.59957627,0,0,0.59957627,40.548315,1.5232623)"
     id="g44">
    <path
       id="path42"
       d="m 532.5,93.5 c 2.29,-4.2905 5.624,-7.6238 10,-10 -3.692,-0.7525 -7.358,-1.5858 -11,-2.5 6.201,0.8931 12.035,-0.2736 17.5,-3.5 -0.531,4.2484 1.303,6.5817 5.5,7 9.538,-1.6033 17.872,-5.6033 25,-12 0.333,0.1667 0.667,0.3333 1,0.5 -3.113,4.6761 -4.613,9.8428 -4.5,15.5 -1.076,-2.8595 -1.909,-5.8595 -2.5,-9 -3,1.5 -6,3 -9,4.5 -0.964,3.7947 -1.13,7.628 -0.5,11.5 -2.647,-2.7726 -3.814,-6.1059 -3.5,-10 -2.868,-0.415 -5.035,0.585 -6.5,3 -1.085,4.9366 -1.752,9.9366 -2,15 -1.174,-5.2504 -1.841,-10.5838 -2,-16 -4.379,3.7768 -8.046,8.1101 -11,13 -0.122,-1.6686 0.212,-3.3353 1,-5 1.833,-3 3.667,-6 5.5,-9 -2.023,-0.541 -4.023,-0.041 -6,1.5 -1.922,2.4295 -4.255,4.2628 -7,5.5 z"
       style="opacity:0.99299999;fill:#db2221" />
  </g>
  <g
     transform="matrix(0.59957627,0,0,0.59957627,40.548315,1.5232623)"
     id="g48">
    <path
       id="path46"
       d="m 532.5,93.5 c 0.039,1.2562 -0.461,2.2562 -1.5,3 -0.585,-1.4976 -0.085,-2.4976 1.5,-3 z"
       style="opacity:0.74900004;fill:#ec7874" />
  </g>
  <g
     transform="matrix(0.59957627,0,0,0.59957627,40.548315,1.5232623)"
     id="g52">
    <path
       id="path50"
       d="m 340.5,100.5 c 5.911,5.409 11.745,11.076 17.5,17 0.667,1 0.667,2 0,3 -97.363,95.03 -195.029,189.697 -293,284 -2.2776,-5.771 -3.9443,-11.771 -5,-18 1.9195,-7.731 2.7528,-15.731 2.5,-24 18.1941,5.745 29.1941,-0.588 33,-19 -0.53,-3.418 -1.03,-6.752 -1.5,-10 13.952,5.529 24.285,1.529 31,-12 0.999,-5.519 0.499,-10.853 -1.5,-16 0.5,-0.333 1,-0.667 1.5,-1 13.948,4.691 23.948,0.358 30,-13 0.676,-5.371 0.509,-10.704 -0.5,-16 13.515,4.149 23.682,0.149 30.5,-12 2.121,-5.905 1.955,-11.738 -0.5,-17.5 0.333,-0.5 0.667,-1 1,-1.5 14.356,6.119 24.856,2.119 31.5,-12 0.999,-5.519 0.499,-10.853 -1.5,-16 1.687,-1.068 3.354,-0.901 5,0.5 22.256,1.577 31.256,-8.59 27,-30.5 14.783,4.688 25.283,0.021 31.5,-14 0.68,-5.491 0.347,-10.825 -1,-16 15.08,6.42 25.747,2.086 32,-13 0.91,-5.158 0.41,-10.158 -1.5,-15 0.333,-0.333 0.667,-0.667 1,-1 12.019,5.383 21.852,2.716 29.5,-8 2.746,-6.134 3.246,-12.467 1.5,-19 z"
       style="opacity:1;fill:#fece2a" />
  </g>
  <g
     transform="matrix(0.59957627,0,0,0.59957627,40.548315,1.5232623)"
     id="g56">
    <path
       id="path54"
       d="m 376.5,100.5 c -1.529,9.907 1.471,18.407 9,25.5 7.41,4.044 15.076,4.544 23,1.5 -3.372,11.388 -0.372,20.888 9,28.5 7.263,4.397 14.596,4.564 22,0.5 -2.722,10.593 -0.056,19.759 8,27.5 7.255,4.019 14.755,4.519 22.5,1.5 0.5,0.333 1,0.667 1.5,1 -4.945,14.608 -0.279,24.775 14,30.5 5.164,0.91 10.164,0.41 15,-1.5 0.667,0.333 1.333,0.667 2,1 -4.128,11.118 -1.461,20.285 8,27.5 3.759,1.913 7.759,2.747 12,2.5 4.156,-0.077 8.156,-0.577 12,-1.5 -5.535,15.091 -0.869,25.424 14,31 4.977,0.852 9.81,0.352 14.5,-1.5 0.5,0.333 1,0.667 1.5,1 -4.128,11.118 -1.461,20.285 8,27.5 6.954,3.062 13.954,3.228 21,0.5 0.872,1.966 0.705,3.966 -0.5,6 -1.451,15.545 5.549,24.211 21,26 3.37,0.167 6.537,-0.499 9.5,-2 -2.424,10.907 0.576,20.073 9,27.5 7.567,4.489 15.234,4.655 23,0.5 0.333,0.333 0.667,0.667 1,1 -2.094,7.81 -0.76,14.977 4,21.5 -1.79,7.669 -3.957,15.169 -6.5,22.5 C 555.833,311 457.667,215.5 359.5,120 c 5.321,-6.812 10.987,-13.312 17,-19.5 z"
       style="opacity:1;fill:#fece2a" />
  </g>
  <g
     transform="matrix(0.59957627,0,0,0.59957627,40.548315,1.5232623)"
     id="g60">
    <path
       id="path58"
       d="m 161.5,111.5 c -3.692,0.529 -6.858,-0.471 -9.5,-3 -1.054,2.254 -2.554,2.587 -4.5,1 -0.625,3.916 -2.291,7.249 -5,10 -0.333,-0.167 -0.667,-0.333 -1,-0.5 3.222,-3.511 4.722,-7.678 4.5,-12.5 1.11,1.537 2.61,2.203 4.5,2 -0.157,-1.373 0.01,-2.707 0.5,-4 2.998,3.238 6.498,5.571 10.5,7 z"
       style="opacity:0.94800002;fill:#dc2c2a" />
  </g>
  <g
     transform="matrix(0.59957627,0,0,0.59957627,40.548315,1.5232623)"
     id="g64">
    <path
       id="path62"
       d="m 560.5,109.5 c 0.275,-2.258 1.275,-2.592 3,-1 0.781,-1.229 1.281,-2.562 1.5,-4 2.778,3.307 6.278,5.474 10.5,6.5 -3.461,0.874 -6.461,0.04 -9,-2.5 -0.667,0.667 -1.333,1.333 -2,2 -1.236,-0.746 -2.57,-1.079 -4,-1 z"
       style="opacity:0.969;fill:#d9171c" />
  </g>
  <g
     transform="matrix(0.59957627,0,0,0.59957627,40.548315,1.5232623)"
     id="g68">
    <path
       id="path66"
       d="m 130.5,104.5 c 1.452,3.975 3.952,7.308 7.5,10 0.982,1.259 1.315,2.592 1,4 -2.468,-3.22 -5.135,-6.22 -8,-9 -1.793,2.795 -3.96,5.295 -6.5,7.5 -1.865,1.301 -3.865,1.635 -6,1 6.685,-2.182 10.685,-6.682 12,-13.5 z"
       style="opacity:0.99199997;fill:#dd2f2c" />
  </g>
  <g
     transform="matrix(0.59957627,0,0,0.59957627,40.548315,1.5232623)"
     id="g72">
    <path
       id="path70"
       d="m 560.5,109.5 c 0.617,3.995 -0.549,7.328 -3.5,10 1.428,-3.2 2.594,-6.533 3.5,-10 z"
       style="opacity:1;fill:#dd3131" />
  </g>
  <g
     transform="matrix(0.59957627,0,0,0.59957627,40.548315,1.5232623)"
     id="g76">
    <path
       id="path74"
       d="m 544.5,104.5 c 1.793,4.314 4.626,7.981 8.5,11 0.667,1 0.667,2 0,3 -2.295,-3.297 -4.962,-6.297 -8,-9 -2.131,5.973 -6.297,8.806 -12.5,8.5 6.695,-2.191 10.695,-6.691 12,-13.5 z"
       style="opacity:1;fill:#dc2c29" />
  </g>
  <g
     transform="matrix(0.59957627,0,0,0.59957627,40.548315,1.5232623)"
     id="g80">
    <path
       id="path78"
       d="m 563.5,135.5 c 3.63,1.109 5.463,3.442 5.5,7 -1.721,-2.539 -3.554,-4.872 -5.5,-7 z"
       style="opacity:0.894;fill:#dc272c" />
  </g>
  <g
     transform="matrix(0.59957627,0,0,0.59957627,40.548315,1.5232623)"
     id="g84">
    <path
       id="path82"
       d="m 122.5,137.5 c 5.171,0.584 10.338,1.25 15.5,2 3.784,-0.039 7.45,-0.706 11,-2 3.798,0.596 5.298,2.596 4.5,6 -6.075,-1.784 -9.075,0.549 -9,7 0.236,5.304 2.236,9.804 6,13.5 -2.849,2.559 -3.683,5.726 -2.5,9.5 7.409,4.85 8.409,10.85 3,18 -1.312,-2.158 -2.978,-2.491 -5,-1 -0.898,4.295 -2.731,8.128 -5.5,11.5 -2.732,0.905 -3.399,0.238 -2,-2 -0.43,-1.434 -1.264,-2.601 -2.5,-3.5 -1.875,3.906 -4.375,7.406 -7.5,10.5 -0.948,0.483 -1.948,0.649 -3,0.5 0,-1.333 0,-2.667 0,-4 -3.067,0.07 -5.4,1.404 -7,4 -0.886,-0.825 -1.219,-1.825 -1,-3 -5.118,-0.553 -7.784,1.781 -8,7 -5.558,3.476 -8.224,1.809 -8,-5 1,0 2,0 3,0 0,-1.333 0,-2.667 0,-4 -2.287,0.224 -4.453,0.891 -6.5,2 -5.4768,-1.483 -5.9768,-3.983 -1.5,-7.5 7.152,-0.395 8.319,-2.895 3.5,-7.5 -0.6172,-0.949 -0.4506,-1.782 0.5,-2.5 -0.6667,-0.667 -1.3333,-1.333 -2,-2 5.243,-4.03 8.743,-2.863 10.5,3.5 1.351,1.51 3.018,2.51 5,3 9.447,-2.129 16.614,-7.296 21.5,-15.5 -3.767,-3.767 -7.6,-7.6 -11.5,-11.5 -4.509,-6.702 -6.176,-14.035 -5,-22 0.997,-1.823 2.164,-3.49 3.5,-5 z"
       style="opacity:0.99800002;fill:#fefcfc" />
  </g>
  <g
     transform="matrix(0.59957627,0,0,0.59957627,40.548315,1.5232623)"
     id="g88">
    <path
       id="path86"
       d="m 358.5,142.5 c 97.269,93.1 194.102,186.767 290.5,281 -4.115,15.003 -9.448,29.67 -16,44 -11.142,22.285 -22.809,44.285 -35,66 C 518.333,461.167 438.667,388.833 359,316.5 279.883,387.983 201.049,459.817 122.5,532 c -0.949,0.617 -1.782,0.451 -2.5,-0.5 -16.716,-27.766 -31.0496,-56.766 -43,-87 -2.7735,-7.645 -5.1069,-15.312 -7,-23 96.366,-92.867 192.533,-185.867 288.5,-279 z"
       style="opacity:1;fill:#fecf2a" />
  </g>
  <g
     transform="matrix(0.59957627,0,0,0.59957627,40.548315,1.5232623)"
     id="g92">
    <path
       id="path90"
       d="m 561.5,144.5 c 2.51,-2.587 5.177,-2.587 8,0 -2.377,-0.926 -5.044,-0.926 -8,0 z"
       style="opacity:0.847;fill:#de3435" />
  </g>
  <g
     transform="matrix(0.59957627,0,0,0.59957627,40.548315,1.5232623)"
     id="g96">
    <path
       id="path94"
       d="m 331.5,187.5 c 18.162,-1.162 36.495,-1.329 55,-0.5 -10.573,12.65 -17.24,27.15 -20,43.5 3,0 6,0 9,0 0,2.667 0,5.333 0,8 15.676,-3.339 30.009,-9.672 43,-19 1.166,18.324 1.333,36.658 0.5,55 -12.325,-10.579 -26.492,-17.579 -42.5,-21 -0.984,2.928 -1.317,5.928 -1,9 -2.667,0 -5.333,0 -8,0 3.056,16.11 9.39,30.776 19,44 -18.324,1.166 -36.658,1.333 -55,0.5 10.884,-12.935 17.551,-27.768 20,-44.5 -2.667,0 -5.333,0 -8,0 0,-2.667 0,-5.333 0,-8 -16.512,3.007 -31.345,9.674 -44.5,20 -0.667,-18.333 -0.667,-36.667 0,-55 13.045,10.533 27.712,16.867 44,19 0.497,-2.646 0.664,-5.313 0.5,-8 2.747,0.313 5.414,-0.02 8,-1 -3.495,-15.652 -10.162,-29.652 -20,-42 z"
       style="opacity:1;fill:#d81212" />
  </g>
  <g
     transform="matrix(0.59957627,0,0,0.59957627,40.548315,1.5232623)"
     id="g100">
    <path
       id="path98"
       d="m 356.5,617.5 c -3.352,-4.015 -7.685,-6.515 -13,-7.5 -6.944,-1.455 -13.944,-1.788 -21,-1 -17.321,4.33 -34.654,8.664 -52,13 -8.209,2.142 -16.542,3.309 -25,3.5 -1.996,-54.323 -2.662,-108.99 -2,-164 22.891,1.297 44.558,-3.203 65,-13.5 18.353,-5.78 34.853,-2.614 49.5,9.5 0.833,53.67 0.667,107.336 -0.5,161 -0.607,-0.124 -0.94,-0.457 -1,-1 z"
       style="opacity:0.99900004;fill:#fefdfd" />
  </g>
  <g
     transform="matrix(0.59957627,0,0,0.59957627,40.548315,1.5232623)"
     id="g104">
    <path
       id="path102"
       d="m 469.5,626.5 c -23.496,-4.205 -46.829,-9.705 -70,-16.5 -4.934,-1.16 -9.934,-1.66 -15,-1.5 -1.599,-0.268 -2.932,0.066 -4,1 -7.903,0.299 -14.57,3.299 -20,9 -1.167,-53.664 -1.333,-107.33 -0.5,-161 8.784,-7.428 18.951,-10.761 30.5,-10 6.788,-0.142 13.455,0.691 20,2.5 12.219,4.073 24.552,7.74 37,11 8.989,1.656 17.989,1.822 27,0.5 0.167,54.668 0,109.334 -0.5,164 -1.356,0.88 -2.856,1.214 -4.5,1 z"
       style="opacity:0.99900004;fill:#fefdfd" />
  </g>
  <g
     transform="matrix(0.59957627,0,0,0.59957627,40.548315,1.5232623)"
     id="g108">
    <path
       id="path106"
       d="m 250.5,627.5 c 24.891,-4.889 49.558,-10.723 74,-17.5 11.727,-1.834 22.06,1 31,8.5 0.477,1.964 1.644,3.298 3.5,4 3.489,-2.82 6.989,-5.653 10.5,-8.5 3.687,-2.285 7.687,-3.452 12,-3.5 3,0 6,0 9,0 2.357,-0.163 4.69,0.003 7,0.5 23.127,6.449 46.461,11.949 70,16.5 2.948,0.277 5.781,-0.056 8.5,-1 0.333,-54.667 0.667,-109.333 1,-164 3.667,3 7.333,6 11,9 0.5,54.666 0.667,109.332 0.5,164 -37.317,-2.416 -74.651,-4.249 -112,-5.5 -12.714,10.472 -24.88,9.972 -36.5,-1.5 -36.802,2.626 -73.635,4.959 -110.5,7 -0.167,-54.668 0,-109.334 0.5,-164 3.358,-2.858 6.858,-5.525 10.5,-8 0.833,54.33 1.333,108.664 1.5,163 2.719,0.944 5.552,1.277 8.5,1 z"
       style="opacity:0.99900004;fill:#fefdfd" />
  </g>
  <g
     transform="matrix(0.59957627,0,0,0.59957627,40.548315,1.5232623)"
     id="g112">
    <path
       id="path110"
       d="m 331.5,513.5 c 0,1 0,2 0,3 -4.202,-0.317 -8.202,0.017 -12,1 -17.166,5.277 -34.499,9.944 -52,14 1,-10.188 5.667,-18.355 14,-24.5 3.5,-2.167 7,-4.333 10.5,-6.5 1.022,-5.405 0.522,-10.571 -1.5,-15.5 1.444,-2.449 3.278,-4.615 5.5,-6.5 0.218,-2.926 0.718,-5.76 1.5,-8.5 1.798,-1.505 3.632,-1.672 5.5,-0.5 0.333,2.667 0.667,5.333 1,8 0.667,0.667 1.333,1.333 2,2 -0.239,5.965 -0.406,11.965 -0.5,18 9.721,-0.265 17.888,3.069 24.5,10 1.128,1.845 1.628,3.845 1.5,6 z"
       style="opacity:1;fill:#d80f14" />
  </g>
  <g
     transform="matrix(0.59957627,0,0,0.59957627,40.548315,1.5232623)"
     id="g116">
    <path
       id="path114"
       d="m 398.5,517.5 c -3.798,-0.983 -7.798,-1.317 -12,-1 0,-1 0,-2 0,-3 2.47,-9.617 8.804,-14.784 19,-15.5 2.31,-0.497 4.643,-0.663 7,-0.5 -0.094,-6.035 -0.261,-12.035 -0.5,-18 0.667,-0.667 1.333,-1.333 2,-2 0.333,-2.667 0.667,-5.333 1,-8 1.868,-1.172 3.702,-1.005 5.5,0.5 0.782,2.74 1.282,5.574 1.5,8.5 2.222,1.885 4.056,4.051 5.5,6.5 -2.022,4.929 -2.522,10.095 -1.5,15.5 9.232,4.565 16.565,11.231 22,20 1.562,3.514 2.395,7.181 2.5,11 -17.501,-4.056 -34.834,-8.723 -52,-14 z"
       style="opacity:1;fill:#d81015" />
  </g>
  <g
     transform="matrix(0.59957627,0,0,0.59957627,40.548315,1.5232623)"
     id="g120">
    <path
       id="path118"
       d="m 218.5,471.5 c 3,0 6,0 9,0 0,55.333 0,110.667 0,166 34.665,-1.961 69.332,-3.961 104,-6 3.333,0.167 6.667,0.333 10,0.5 11.843,9.808 23.843,9.808 36,0 37.675,1.389 75.342,3.223 113,5.5 0,-55.333 0,-110.667 0,-166 3.333,0 6.667,0 10,0 0,58 0,116 0,174 -41.311,-2.499 -82.644,-4.332 -124,-5.5 -8.388,6.496 -17.721,8.163 -28,5 -3.003,-1.166 -5.67,-2.833 -8,-5 -40.685,1.234 -81.352,3.068 -122,5.5 0,-58 0,-116 0,-174 z"
       style="opacity:0.99900004;fill:#fef9f9" />
  </g>
  <g
     transform="matrix(0.59957627,0,0,0.59957627,40.548315,1.5232623)"
     id="g124">
    <path
       id="path122"
       d="m 68.5,515.5 c 8.3561,-0.488 15.3561,2.346 21,8.5 33.735,32.625 55.068,72.125 64,118.5 -0.406,12.037 -5.739,14.87 -16,8.5 -7.212,-4.206 -13.545,-9.539 -19,-16 -11.208,-9.373 -21.541,-8.54 -31,2.5 -4.1676,-21.34 -13.8343,-39.673 -29,-55 9.6165,-6.394 18.7831,-13.394 27.5,-21 3.3333,-6.667 3.3333,-13.333 0,-20 -2.7477,-4.752 -6.2477,-8.919 -10.5,-12.5 -0.6667,-0.667 -1.3333,-0.667 -2,0 -2.5518,2.853 -5.3851,5.353 -8.5,7.5 -4.273,-8.113 -3.1063,-15.113 3.5,-21 z"
       style="opacity:0.99900004;fill:#fefdfd" />
  </g>
  <g
     transform="matrix(0.59957627,0,0,0.59957627,40.548315,1.5232623)"
     id="g128">
    <path
       id="path126"
       d="m 641.5,515.5 c 8.901,-1.893 13.901,1.607 15,10.5 -0.461,3.608 -1.295,7.108 -2.5,10.5 -3.333,-2.667 -6.667,-5.333 -10,-8 -9.464,7.081 -13.798,16.414 -13,28 1.306,4.313 3.806,7.813 7.5,10.5 7,4.833 14,9.667 21,14.5 1.021,0.502 1.188,1.168 0.5,2 -14.998,14.993 -24.498,32.993 -28.5,54 -9.459,-11.04 -19.792,-11.873 -31,-2.5 -7.286,8.295 -15.953,14.628 -26,19 -3.666,1.271 -6.166,0.104 -7.5,-3.5 -1.716,-8.788 -1.05,-17.455 2,-26 11.387,-38.967 31.553,-72.467 60.5,-100.5 3.625,-3.474 7.625,-6.307 12,-8.5 z"
       style="opacity:0.99900004;fill:#fefdfd" />
  </g>
  <g
     transform="matrix(0.59957627,0,0,0.59957627,40.548315,1.5232623)"
     id="g132">
    <path
       id="path130"
       d="m 331.5,513.5 c 0.934,1.068 1.268,2.401 1,4 -4.333,0 -8.667,0 -13,0 3.798,-0.983 7.798,-1.317 12,-1 0,-1 0,-2 0,-3 z"
       style="opacity:0.81199999;fill:#e55b5f" />
  </g>
  <g
     transform="matrix(0.59957627,0,0,0.59957627,40.548315,1.5232623)"
     id="g136">
    <path
       id="path134"
       d="m 386.5,513.5 c 0,1 0,2 0,3 4.202,-0.317 8.202,0.017 12,1 -4.333,0 -8.667,0 -13,0 -0.268,-1.599 0.066,-2.932 1,-4 z"
       style="opacity:0.81199999;fill:#e66064" />
  </g>
  <g
     transform="matrix(0.59957627,0,0,0.59957627,40.548315,1.5232623)"
     id="g140">
    <path
       id="path138"
       d="m 322.5,524.5 c 3.307,0.551 6.64,0.884 10,1 -2.002,8.821 -6.669,15.988 -14,21.5 -4.069,3.063 -8.402,5.73 -13,8 -1.399,1.062 -2.399,2.395 -3,4 2.618,1.593 4.951,3.593 7,6 -1.046,3.051 -2.879,5.551 -5.5,7.5 -0.76,4.982 1.073,8.815 5.5,11.5 2.827,1.623 5.827,2.79 9,3.5 0.886,0.825 1.219,1.825 1,3 -13.251,-0.017 -25.918,2.65 -38,8 -1.083,-0.865 -1.249,-1.865 -0.5,-3 8.816,-4.311 13.649,-11.311 14.5,-21 -6.925,0.928 -8.759,-1.739 -5.5,-8 1.242,-1.372 2.742,-2.372 4.5,-3 1.131,-1.574 1.298,-3.241 0.5,-5 -9.811,0.3 -18.145,-3.033 -25,-10 -1.885,-2.414 -2.552,-5.081 -2,-8 18.35,-5.065 36.516,-10.398 54.5,-16 z"
       style="opacity:1;fill:#d81015" />
  </g>
  <g
     transform="matrix(0.59957627,0,0,0.59957627,40.548315,1.5232623)"
     id="g144">
    <path
       id="path142"
       d="m 391.5,524.5 c 4.716,0.508 9.382,1.342 14,2.5 14.763,4.897 29.596,9.397 44.5,13.5 -0.704,7.727 -4.87,12.894 -12.5,15.5 -4.859,0.933 -9.692,1.766 -14.5,2.5 -0.798,1.759 -0.631,3.426 0.5,5 5.073,1.976 6.74,5.476 5,10.5 -1.973,0.495 -3.973,0.662 -6,0.5 0.851,9.689 5.684,16.689 14.5,21 0.749,1.135 0.583,2.135 -0.5,3 -12.094,-5.352 -24.76,-8.019 -38,-8 -0.219,-1.175 0.114,-2.175 1,-3 5.508,-1.003 10.008,-3.669 13.5,-8 2.546,-4.595 1.546,-8.261 -3,-11 -0.781,-1.229 -1.281,-2.562 -1.5,-4 2.279,-1.969 4.612,-3.802 7,-5.5 -0.601,-1.605 -1.601,-2.938 -3,-4 -8.158,-4.167 -15.324,-9.667 -21.5,-16.5 -2.937,-3.874 -4.771,-8.207 -5.5,-13 2.235,0.295 4.235,-0.039 6,-1 z"
       style="opacity:1;fill:#d80f15" />
  </g>
  <g
     transform="matrix(0.59957627,0,0,0.59957627,40.548315,1.5232623)"
     id="g148">
    <path
       id="path146"
       d="m 53.5,529.5 c 2.4694,7.551 5.3027,15.218 8.5,23 2.8333,3.667 5.6667,7.333 8.5,11 -15.0575,10.2 -29.3909,21.367 -43,33.5 -1,0.667 -2,0.667 -3,0 C 13.7628,588.36 8.26282,577.193 8,563.5 18.9041,555.297 30.0708,547.464 41.5,540 c 4.1932,-3.365 8.1932,-6.865 12,-10.5 z"
       style="opacity:0.99900004;fill:#fefdfd" />
  </g>
  <g
     transform="matrix(0.59957627,0,0,0.59957627,40.548315,1.5232623)"
     id="g152">
    <path
       id="path150"
       d="m 663.5,529.5 c 13.611,10.759 27.944,20.592 43,29.5 1.5,1.5 3,3 4.5,4.5 -0.263,13.693 -5.763,24.86 -16.5,33.5 -1,0.667 -2,0.667 -3,0 -13.609,-12.133 -27.942,-23.3 -43,-33.5 8.797,-9.6 13.797,-20.933 15,-34 z"
       style="opacity:0.99900004;fill:#fefdfd" />
  </g>
  <g
     transform="matrix(0.59957627,0,0,0.59957627,40.548315,1.5232623)"
     id="g156">
    <path
       id="path154"
       d="m 356.5,617.5 c -0.667,0 -1,0.333 -1,1 -8.94,-7.5 -19.273,-10.334 -31,-8.5 -24.442,6.777 -49.109,12.611 -74,17.5 -1.667,-0.667 -3.333,-1.333 -5,-2 8.458,-0.191 16.791,-1.358 25,-3.5 17.346,-4.336 34.679,-8.67 52,-13 7.056,-0.788 14.056,-0.455 21,1 5.315,0.985 9.648,3.485 13,7.5 z"
       style="opacity:1;fill:#dd2f2c" />
  </g>
  <g
     transform="matrix(0.59957627,0,0,0.59957627,40.548315,1.5232623)"
     id="g160">
    <path
       id="path158"
       d="m 380.5,609.5 c 1.068,-0.934 2.401,-1.268 4,-1 2,0.667 4,1.333 6,2 -3,0 -6,0 -9,0 0,-0.667 -0.333,-1 -1,-1 z"
       style="opacity:0.74900004;fill:#ef9092" />
  </g>
  <g
     transform="matrix(0.59957627,0,0,0.59957627,40.548315,1.5232623)"
     id="g164">
    <path
       id="path162"
       d="m 384.5,608.5 c 5.066,-0.16 10.066,0.34 15,1.5 23.171,6.795 46.504,12.295 70,16.5 -0.992,-0.172 -1.658,0.162 -2,1 -23.539,-4.551 -46.873,-10.051 -70,-16.5 -2.31,-0.497 -4.643,-0.663 -7,-0.5 -2,-0.667 -4,-1.333 -6,-2 z"
       style="opacity:1;fill:#de3632" />
  </g>
  <g
     transform="matrix(0.59957627,0,0,0.59957627,40.548315,1.5232623)"
     id="g168">
    <path
       id="path166"
       d="m 90.5,646.5 c 23.422,28.254 49.422,54.088 78,77.5 34.282,23.438 71.948,39.104 113,47 75.669,14.872 149.335,8.206 221,-20 29.924,-13.272 56.591,-31.272 80,-54 17.023,-15.512 32.356,-32.346 46,-50.5 15.314,12.813 30.481,25.813 45.5,39 0.84,7.483 -1.16,14.149 -6,20 -57.39,60.136 -126.557,100.97 -207.5,122.5 -89.412,22.696 -176.745,16.362 -262,-19 -35.756,-14.489 -68.423,-33.823 -98,-58 C 84.3938,736.896 68.8938,722.062 54,706.5 c -5.0524,-6.154 -7.0524,-13.154 -6,-21 1.2709,-2.933 2.9376,-5.599 5,-8 12.9811,-9.82 25.4811,-20.154 37.5,-31 z"
       style="opacity:0.99900004;fill:#fefdfd" />
  </g>
  <g
     transform="matrix(0.59957627,0,0,0.59957627,40.548315,1.5232623)"
     id="g172">
    <path
       id="path170"
       d="m 171.5,744.5 c -11.136,-1.565 -17.469,3.435 -19,15 0.404,3.729 2.071,6.729 5,9 -8.538,-3.765 -11.038,-10.098 -7.5,-19 5.716,-8.495 12.883,-10.162 21.5,-5 z"
       style="opacity:1;fill:#db2322" />
  </g>
  <g
     transform="matrix(0.59957627,0,0,0.59957627,40.548315,1.5232623)"
     id="g176">
    <path
       id="path174"
       d="m 545.5,747.5 c 2.374,-2.277 5.207,-3.944 8.5,-5 1.953,1.246 2.953,2.913 3,5 -1.062,-1.399 -2.395,-2.399 -4,-3 -2.465,1.151 -4.965,2.151 -7.5,3 z"
       style="opacity:1;fill:#dd2d2b" />
  </g>
  <g
     transform="matrix(0.59957627,0,0,0.59957627,40.548315,1.5232623)"
     id="g180">
    <path
       id="path178"
       d="m 545.5,747.5 c -0.803,0.923 -0.97,1.923 -0.5,3 1.586,2.17 2.92,4.504 4,7 0.671,0.752 1.504,1.086 2.5,1 -0.803,0.923 -0.97,1.923 -0.5,3 3.179,9.543 8.179,10.543 15,3 0.531,-5.033 1.698,-5.033 3.5,0 -0.209,0.586 -0.543,1.086 -1,1.5 -6.356,3.349 -12.69,6.349 -19,9 1.711,-1.133 2.211,-2.633 1.5,-4.5 -3.345,-6.702 -7.179,-13.035 -11.5,-19 -0.951,0.826 -1.951,0.992 -3,0.5 2.743,-2.038 5.743,-3.538 9,-4.5 z"
       style="opacity:0.99900004;fill:#da2120" />
  </g>
  <g
     transform="matrix(0.59957627,0,0,0.59957627,40.548315,1.5232623)"
     id="g184">
    <path
       id="path182"
       d="m 171.5,744.5 c 2.604,1.939 4.938,3.605 7,5 -3.117,7.705 -4.284,7.705 -3.5,0 -0.997,-1.823 -2.164,-3.49 -3.5,-5 z"
       style="opacity:1;fill:#db2225" />
  </g>
  <g
     transform="matrix(0.59957627,0,0,0.59957627,40.548315,1.5232623)"
     id="g188">
    <path
       id="path186"
       d="m 551.5,758.5 c 1.57,-2.351 2.403,-5.018 2.5,-8 1.247,2.829 2.747,5.495 4.5,8 -2.052,0.205 -4.386,0.205 -7,0 z"
       style="opacity:1;fill:#db2525" />
  </g>
  <g
     transform="matrix(0.59957627,0,0,0.59957627,40.548315,1.5232623)"
     id="g192">
    <path
       id="path190"
       d="m 196.5,757.5 c -10.307,0.47 -15.974,5.97 -17,16.5 0.593,2.683 1.593,5.183 3,7.5 -6.706,-4.296 -8.54,-10.296 -5.5,-18 4.91,-7.584 11.41,-9.584 19.5,-6 z"
       style="opacity:1;fill:#db2221" />
  </g>
  <g
     transform="matrix(0.59957627,0,0,0.59957627,40.548315,1.5232623)"
     id="g196">
    <path
       id="path194"
       d="m 196.5,757.5 c 0.992,-0.172 1.658,0.162 2,1 5.308,10.251 2.975,18.418 -7,24.5 -3.181,0.597 -6.181,0.097 -9,-1.5 -1.407,-2.317 -2.407,-4.817 -3,-7.5 1.026,-10.53 6.693,-16.03 17,-16.5 z"
       style="opacity:0.99800002;fill:#fefafa" />
  </g>
  <g
     transform="matrix(0.59957627,0,0,0.59957627,40.548315,1.5232623)"
     id="g200">
    <path
       id="path198"
       d="m 198.5,758.5 c 1.871,0.359 3.371,1.359 4.5,3 5.019,9.091 3.186,16.591 -5.5,22.5 -4,0.667 -8,0.667 -12,0 -1.442,-0.377 -2.442,-1.21 -3,-2.5 2.819,1.597 5.819,2.097 9,1.5 9.975,-6.082 12.308,-14.249 7,-24.5 z"
       style="opacity:1;fill:#db2523" />
  </g>
  <g
     transform="matrix(0.59957627,0,0,0.59957627,40.548315,1.5232623)"
     id="g204">
    <path
       id="path202"
       d="m 530.5,754.5 c 0.739,-0.131 1.406,0.036 2,0.5 -1.323,9.137 -1.323,18.303 0,27.5 -0.5,1 -1,2 -1.5,3 -7.5,-6.833 -15,-13.667 -22.5,-20.5 2.558,-1.626 5.225,-2.626 8,-3 -0.951,0.718 -1.117,1.551 -0.5,2.5 4.3,5.301 8.966,10.301 14,15 0.73,-7.048 0.397,-14.048 -1,-21 -1.067,-0.691 -2.234,-1.191 -3.5,-1.5 1.815,-0.757 3.481,-1.59 5,-2.5 z"
       style="opacity:1;fill:#dd2f29" />
  </g>
  <g
     transform="matrix(0.59957627,0,0,0.59957627,40.548315,1.5232623)"
     id="g208">
    <path
       id="path206"
       d="m 157.5,768.5 c 4.339,0.654 8.173,-0.346 11.5,-3 -0.126,2.598 -1.126,4.931 -3,7 -2.793,-1.486 -5.626,-2.819 -8.5,-4 z"
       style="opacity:1;fill:#de3531" />
  </g>
  <g
     transform="matrix(0.59957627,0,0,0.59957627,40.548315,1.5232623)"
     id="g212">
    <path
       id="path210"
       d="m 502.5,766.5 c 0.739,-0.131 1.406,0.036 2,0.5 -1.49,0.745 -2.49,1.912 -3,3.5 1.399,4.698 2.899,9.364 4.5,14 0.667,3 0.667,6 0,9 -4.982,5.882 -10.982,7.216 -18,4 -2.651,-6.264 -5.151,-12.597 -7.5,-19 -1.578,-0.798 -3.244,-1.298 -5,-1.5 3.974,-1.769 7.974,-3.103 12,-4 -1.49,0.745 -2.49,1.912 -3,3.5 2.067,6.033 4.233,12.033 6.5,18 5.302,4.276 9.969,3.609 14,-2 0.005,-7.334 -1.661,-14.334 -5,-21 -1.399,-0.727 -2.899,-1.227 -4.5,-1.5 2.569,-0.898 4.902,-2.065 7,-3.5 z"
       style="opacity:1;fill:#db2523" />
  </g>
  <g
     transform="matrix(0.59957627,0,0,0.59957627,40.548315,1.5232623)"
     id="g216">
    <path
       id="path214"
       d="m 214.5,767.5 c 0.06,-0.543 0.393,-0.876 1,-1 1.667,0.667 3.333,1.333 5,2 1.108,7.634 1.942,15.3 2.5,23 4.467,-5.468 9.3,-10.635 14.5,-15.5 2.885,-0.279 5.552,0.388 8,2 -2.691,-0.054 -4.524,1.113 -5.5,3.5 -2.027,6.22 -4.194,12.387 -6.5,18.5 0.259,1.261 0.926,2.261 2,3 -3.807,-0.715 -7.473,-2.049 -11,-4 1.575,0.379 3.075,0.212 4.5,-0.5 2.819,-5.615 4.652,-11.282 5.5,-17 -4.957,5.459 -10.124,10.792 -15.5,16 -0.667,-8 -1.333,-16 -2,-24 -2.453,5.521 -4.62,11.188 -6.5,17 0.029,1.529 0.696,2.696 2,3.5 -2.809,0.18 -5.476,-0.487 -8,-2 2.732,-0.398 4.565,-1.898 5.5,-4.5 2.167,-5.833 4.333,-11.667 6.5,-17.5 -0.139,-1.301 -0.805,-2.134 -2,-2.5 z"
       style="opacity:0.98699999;fill:#db2422" />
  </g>
  <g
     transform="matrix(0.59957627,0,0,0.59957627,40.548315,1.5232623)"
     id="g220">
    <path
       id="path218"
       d="m 465.5,808.5 c -11.112,2.766 -17.778,-1.567 -20,-13 2.832,-12.749 10.499,-17.249 23,-13.5 9.383,6.961 10.383,14.961 3,24 -1.717,1.559 -3.717,2.392 -6,2.5 z"
       style="opacity:1;fill:#da2120" />
  </g>
  <g
     transform="matrix(0.59957627,0,0,0.59957627,40.548315,1.5232623)"
     id="g224">
    <path
       id="path222"
       d="m 465.5,808.5 c -7.886,-0.034 -12.719,-4.034 -14.5,-12 -1.883,-8.239 1.284,-13.239 9.5,-15 5.77,1.941 9.27,5.941 10.5,12 1.587,6.418 -0.246,11.418 -5.5,15 z"
       style="opacity:0.99800002;fill:#fefbfb" />
  </g>
  <g
     transform="matrix(0.59957627,0,0,0.59957627,40.548315,1.5232623)"
     id="g228">
    <path
       id="path226"
       d="m 249.5,780.5 c 2.504,-1.102 5.004,-0.769 7.5,1 1.088,7.135 2.588,14.135 4.5,21 4.524,-5.356 8.857,-10.856 13,-16.5 2.744,0.019 5.411,0.686 8,2 -3.31,-0.229 -5.144,1.271 -5.5,4.5 -1.423,5.857 -2.923,11.69 -4.5,17.5 0.285,1.89 1.285,3.223 3,4 -4.013,-0.607 -8.013,-1.607 -12,-3 1.601,-0.273 3.101,-0.773 4.5,-1.5 1.501,-5.339 3.001,-10.672 4.5,-16 -0.667,-1.333 -1.333,-1.333 -2,0 -4.358,5.19 -8.524,10.523 -12.5,16 -1.725,-7.21 -3.225,-14.543 -4.5,-22 -2.281,5.119 -3.948,10.453 -5,16 0.029,1.529 0.696,2.696 2,3.5 -2.345,0.17 -4.679,-0.163 -7,-1 1.431,-0.465 2.597,-1.299 3.5,-2.5 1.6,-6.899 3.433,-13.732 5.5,-20.5 -0.248,-1.749 -1.248,-2.582 -3,-2.5 z"
       style="opacity:0.98699999;fill:#da2120" />
  </g>
  <g
     transform="matrix(0.59957627,0,0,0.59957627,40.548315,1.5232623)"
     id="g232">
    <path
       id="path230"
       d="m 287.5,789.5 c 0.235,-0.597 0.735,-0.93 1.5,-1 2.464,0.661 4.964,1.161 7.5,1.5 -1.167,0.5 -2,1.333 -2.5,2.5 -0.218,2.926 -0.718,5.76 -1.5,8.5 3.455,2.341 5.955,1.507 7.5,-2.5 0.114,3.333 -0.219,6.666 -1,10 -0.727,-3.455 -2.893,-5.121 -6.5,-5 -1.256,3.587 -1.756,7.254 -1.5,11 3.595,1.956 7.428,2.456 11.5,1.5 1.201,-0.903 2.035,-2.069 2.5,-3.5 0.018,2.297 -0.149,4.631 -0.5,7 -7.368,-1.307 -14.701,-2.807 -22,-4.5 1.266,-0.309 2.433,-0.809 3.5,-1.5 1.113,-6.843 2.279,-13.676 3.5,-20.5 0.113,-1.699 -0.553,-2.866 -2,-3.5 z"
       style="opacity:1;fill:#dc2b26" />
  </g>
  <g
     transform="matrix(0.59957627,0,0,0.59957627,40.548315,1.5232623)"
     id="g236">
    <path
       id="path234"
       d="m 297.5,791.5 c 2.844,-1.051 5.844,-1.051 9,0 0.013,6.734 -0.987,7.234 -3,1.5 -1.845,-1.128 -3.845,-1.628 -6,-1.5 z"
       style="opacity:1;fill:#df3732" />
  </g>
  <g
     transform="matrix(0.59957627,0,0,0.59957627,40.548315,1.5232623)"
     id="g240">
    <path
       id="path238"
       d="m 403.5,792.5 c 2.448,-0.973 5.115,-1.306 8,-1 0.157,1.373 -0.01,2.707 -0.5,4 -1.805,-2.539 -4.305,-3.539 -7.5,-3 z"
       style="opacity:1;fill:#db2223" />
  </g>
  <g
     transform="matrix(0.59957627,0,0,0.59957627,40.548315,1.5232623)"
     id="g244">
    <path
       id="path242"
       d="m 403.5,792.5 c -1.068,0.934 -2.401,1.268 -4,1 0.635,8.014 1.468,16.014 2.5,24 1.399,0.727 2.899,1.227 4.5,1.5 -4.279,1.244 -8.612,1.577 -13,1 2.935,-0.101 4.269,-1.601 4,-4.5 -0.997,-6.973 -1.664,-13.973 -2,-21 -3.018,-0.165 -6.018,0.002 -9,0.5 -1.272,1.307 -2.272,2.807 -3,4.5 -1.26,-1.853 -1.26,-3.686 0,-5.5 6.656,-0.711 13.322,-1.211 20,-1.5 z"
       style="opacity:1;fill:#db2322" />
  </g>
  <g
     transform="matrix(0.59957627,0,0,0.59957627,40.548315,1.5232623)"
     id="g248">
    <path
       id="path246"
       d="m 327.5,794.5 c 0.235,-0.597 0.735,-0.93 1.5,-1 3.461,0.718 6.961,1.218 10.5,1.5 -1.266,0.309 -2.433,0.809 -3.5,1.5 -1.083,10.656 -2.083,21.323 -3,32 -3.396,3.703 -7.563,4.869 -12.5,3.5 -1.997,-1.153 -2.33,-2.653 -1,-4.5 1.753,1.761 3.753,3.094 6,4 1.925,-0.09 3.092,-1.09 3.5,-3 1.175,-10.982 1.508,-21.982 1,-33 -0.671,-0.752 -1.504,-1.086 -2.5,-1 z"
       style="opacity:1;fill:#da201f" />
  </g>
  <g
     transform="matrix(0.59957627,0,0,0.59957627,40.548315,1.5232623)"
     id="g252">
    <path
       id="path250"
       d="m 353.5,795.5 c -2,0 -4,0 -6,0 3.936,-1.037 9.936,-1.37 18,-1 0.162,2.027 -0.005,4.027 -0.5,6 -2.532,-4.407 -6.365,-6.074 -11.5,-5 z"
       style="opacity:0.81199999;fill:#e14648" />
  </g>
  <g
     transform="matrix(0.59957627,0,0,0.59957627,40.548315,1.5232623)"
     id="g256">
    <path
       id="path254"
       d="m 347.5,795.5 c 2,0 4,0 6,0 -0.93,3.9 -1.263,7.9 -1,12 3.67,0.173 6.17,-1.493 7.5,-5 0.667,3.667 0.667,7.333 0,11 -0.743,-4.236 -3.243,-5.903 -7.5,-5 -0.165,3.35 0.002,6.683 0.5,10 0.308,0.808 0.808,1.475 1.5,2 5.383,2.171 9.55,0.838 12.5,-4 0.495,1.973 0.662,3.973 0.5,6 -7.674,0.166 -15.341,0 -23,-0.5 1.266,-0.309 2.433,-0.809 3.5,-1.5 0.801,-8.412 0.634,-16.745 -0.5,-25 z"
       style="opacity:1;fill:#d81116" />
  </g>
  <g
     transform="matrix(0.59957627,0,0,0.59957627,40.548315,1.5232623)"
     id="g260">
    <path
       id="path258"
       d="m 423.5,789.5 c 3.476,-1.143 7.142,-1.31 11,-0.5 4.558,5.708 3.558,10.208 -3,13.5 4.13,4.23 8.797,7.73 14,10.5 -2.321,0.837 -4.655,1.17 -7,1 -3.632,-2.63 -6.965,-5.63 -10,-9 -0.948,-0.483 -1.948,-0.649 -3,-0.5 0.174,3.374 0.674,6.707 1.5,10 1.067,0.691 2.234,1.191 3.5,1.5 -3.646,0.356 -7.146,1.189 -10.5,2.5 0.425,-1.555 1.258,-3.055 2.5,-4.5 -1.628,-7.139 -3.128,-14.306 -4.5,-21.5 -1.067,-0.691 -2.234,-1.191 -3.5,-1.5 2.893,-1.149 5.893,-1.649 9,-1.5 z"
       style="opacity:0.99900004;fill:#da2220" />
  </g>
  <g
     transform="matrix(0.59957627,0,0,0.59957627,40.548315,1.5232623)"
     id="g264">
    <path
       id="path262"
       d="m 423.5,789.5 c 8.806,-0.036 11.139,3.797 7,11.5 -1.845,1.128 -3.845,1.628 -6,1.5 -0.536,-3.346 -1.203,-6.68 -2,-10 0.185,-1.084 0.518,-2.084 1,-3 z"
       style="opacity:0.99500002;fill:#fef7f7" />
  </g>
</svg>
